<?xml version="1.0" encoding="UTF-8" standalone="no"?>
<!-- Created with Inkscape (http://www.inkscape.org/) -->

<svg
   xmlns:dc="http://purl.org/dc/elements/1.1/"
   xmlns:cc="http://creativecommons.org/ns#"
   xmlns:rdf="http://www.w3.org/1999/02/22-rdf-syntax-ns#"
   xmlns:svg="http://www.w3.org/2000/svg"
   xmlns="http://www.w3.org/2000/svg"
   xmlns:sodipodi="http://sodipodi.sourceforge.net/DTD/sodipodi-0.dtd"
   xmlns:inkscape="http://www.inkscape.org/namespaces/inkscape"
   width="26"
   height="26"
   viewBox="0 0 26 26"
   id="svg2"
   version="1.1"
   inkscape:version="0.91 r"
   sodipodi:docname="knob_ring.svg">
  <defs
     id="defs4" />
  <sodipodi:namedview
     id="base"
     pagecolor="#ffffff"
     bordercolor="#666666"
     borderopacity="1.0"
     inkscape:pageopacity="0.0"
     inkscape:pageshadow="2"
     inkscape:zoom="15.839192"
     inkscape:cx="2.5875179"
     inkscape:cy="21.972622"
     inkscape:document-units="px"
     inkscape:current-layer="layer1"
     showgrid="false"
     inkscape:showpageshadow="false"
     units="px"
     inkscape:window-width="1916"
     inkscape:window-height="1053"
     inkscape:window-x="1924"
     inkscape:window-y="0"
     inkscape:window-maximized="1" />
  <metadata
     id="metadata7">
    <rdf:RDF>
      <cc:Work
         rdf:about="">
        <dc:format>image/svg+xml</dc:format>
        <dc:type
           rdf:resource="http://purl.org/dc/dcmitype/StillImage" />
        <dc:title />
      </cc:Work>
    </rdf:RDF>
  </metadata>
  <g
     inkscape:label="Capa 1"
     inkscape:groupmode="layer"
     id="layer1"
     transform="translate(0,-1026.3622)">
    <path
       style="opacity:1;fill:none;fill-opacity:1;stroke:#ec4522;stroke-width:3.60873795;stroke-linejoin:miter;stroke-miterlimit:4;stroke-dasharray:none;stroke-opacity:1"
       d="m 5.6418554,1046.6889 c -4.0637596,-4.0637 -4.0637596,-10.6524 0,-14.7162 4.0637912,-4.0638 10.6524976,-4.0638 14.7162896,0 4.06376,4.0638 4.06376,10.6525 0,14.7162"
       id="path4139"
       inkscape:connector-curvature="0"
       sodipodi:nodetypes="cssc" />
    <path
       style="opacity:1;fill:#ec4522;fill-opacity:1;stroke:none;stroke-width:84.40000153;stroke-linejoin:miter;stroke-miterlimit:4;stroke-dasharray:none;stroke-opacity:1"
       d="m -21.48249,1027.3661 a 12,12 0 0 0 -0.601562,0.022 12,12 0 0 0 -0.638672,0.031 12,12 0 0 0 -0.529297,0.072 12,12 0 0 0 -0.640625,0.096 12,12 0 0 0 -0.667969,0.1621 12,12 0 0 0 -0.480469,0.1211 12,12 0 0 0 -0.658203,0.2305 12,12 0 0 0 -0.482422,0.1758 12,12 0 0 0 -0.59375,0.2754 12,12 0 0 0 -0.490234,0.2382 12,12 0 0 0 -0.535156,0.3164 12,12 0 0 0 -0.5,0.3067 12,12 0 0 0 -0.490235,0.3633 12,12 0 0 0 -0.46289,0.3515 12,12 0 0 0 -0.494141,0.4473 12,12 0 0 0 -0.394531,0.3672 12,12 0 0 0 -0.191407,0.2051 12,12 0 0 0 -0.490234,0.5566 12,12 0 0 0 -0.367187,0.4687 12,12 0 0 0 -0.351563,0.4922 12,12 0 0 0 -0.328125,0.5196 12,12 0 0 0 -0.279297,0.4863 12,12 0 0 0 -0.289062,0.5762 12,12 0 0 0 -0.232422,0.5234 12,12 0 0 0 -0.216797,0.5684 12,12 0 0 0 -0.185547,0.5527 12,12 0 0 0 -0.164062,0.6055 12,12 0 0 0 -0.125,0.5586 12,12 0 0 0 -0.101563,0.6074 12,12 0 0 0 -0.07031,0.582 12,12 0 0 0 -0.05078,0.8008 12,12 0 0 0 -0.0078,0.2012 12,12 0 0 0 0.02148,0.6015 12,12 0 0 0 0.03125,0.6387 12,12 0 0 0 0.07227,0.5293 12,12 0 0 0 0.0957,0.6406 12,12 0 0 0 0.162109,0.668 12,12 0 0 0 0.121094,0.4805 12,12 0 0 0 0.230469,0.6582 12,12 0 0 0 0.175781,0.4824 12,12 0 0 0 0.275391,0.5937 12,12 0 0 0 0.238281,0.4903 12,12 0 0 0 0.316406,0.5351 12,12 0 0 0 0.306641,0.5 12,12 0 0 0 0.363281,0.4903 12,12 0 0 0 0.351563,0.4629 12,12 0 0 0 0.447265,0.4941 12,12 0 0 0 0.306641,0.3301 l 2.121094,-2.1211 a 9,9 0 0 1 -2.640625,-6.3594 9,9 0 0 1 9,-9 9,9 0 0 1 9,9 9,9 0 0 1 -2.640625,6.3594 l 2.121094,2.1211 a 12,12 0 0 0 0.06445,-0.061 12,12 0 0 0 0.191406,-0.2051 12,12 0 0 0 0.490234,-0.5566 12,12 0 0 0 0.367188,-0.4687 12,12 0 0 0 0.351562,-0.4922 12,12 0 0 0 0.328126,-0.5196 12,12 0 0 0 0.279296,-0.4863 12,12 0 0 0 0.289063,-0.5762 12,12 0 0 0 0.232422,-0.5234 12,12 0 0 0 0.216797,-0.5684 12,12 0 0 0 0.185546,-0.5527 12,12 0 0 0 0.1640626,-0.6055 12,12 0 0 0 0.125,-0.5586 12,12 0 0 0 0.101563,-0.6074 12,12 0 0 0 0.070312,-0.582 12,12 0 0 0 0.050781,-0.8008 12,12 0 0 0 0.00781,-0.2012 12,12 0 0 0 -0.021485,-0.6015 12,12 0 0 0 -0.03125,-0.6387 12,12 0 0 0 -0.072265,-0.5293 12,12 0 0 0 -0.095703,-0.6406 12,12 0 0 0 -0.16211,-0.668 12,12 0 0 0 -0.1210926,-0.4805 12,12 0 0 0 -0.230469,-0.6582 12,12 0 0 0 -0.175781,-0.4824 12,12 0 0 0 -0.275391,-0.5937 12,12 0 0 0 -0.238281,-0.4903 12,12 0 0 0 -0.316407,-0.5351 12,12 0 0 0 -0.30664,-0.5 12,12 0 0 0 -0.363281,-0.4903 12,12 0 0 0 -0.351563,-0.4628 12,12 0 0 0 -0.447266,-0.4942 12,12 0 0 0 -0.367187,-0.3945 12,12 0 0 0 -0.205078,-0.1914 12,12 0 0 0 -0.556641,-0.4903 12,12 0 0 0 -0.46875,-0.3671 12,12 0 0 0 -0.492187,-0.3516 12,12 0 0 0 -0.519532,-0.3281 12,12 0 0 0 -0.486328,-0.2793 12,12 0 0 0 -0.576172,-0.2891 12,12 0 0 0 -0.523437,-0.2324 12,12 0 0 0 -0.568359,-0.2168 12,12 0 0 0 -0.552735,-0.1856 12,12 0 0 0 -0.605469,-0.164 12,12 0 0 0 -0.558593,-0.125 12,12 0 0 0 -0.607422,-0.1016 12,12 0 0 0 -0.582031,-0.07 12,12 0 0 0 -0.800782,-0.051 12,12 0 0 0 -0.201172,-0.01 z"
       id="path4136"
       inkscape:connector-curvature="0" />
  </g>
</svg>
