<?xml version="1.0" encoding="UTF-8" standalone="no"?>
<!-- Created with Inkscape (http://www.inkscape.org/) -->

<svg
   xmlns:dc="http://purl.org/dc/elements/1.1/"
   xmlns:cc="http://creativecommons.org/ns#"
   xmlns:rdf="http://www.w3.org/1999/02/22-rdf-syntax-ns#"
   xmlns:svg="http://www.w3.org/2000/svg"
   xmlns="http://www.w3.org/2000/svg"
   xmlns:sodipodi="http://sodipodi.sourceforge.net/DTD/sodipodi-0.dtd"
   xmlns:inkscape="http://www.inkscape.org/namespaces/inkscape"
   width="26"
   height="26"
   viewBox="0 0 26 26"
   id="svg2"
   version="1.1"
   inkscape:version="0.91 r"
   sodipodi:docname="knob_bg.svg">
  <defs
     id="defs4" />
  <sodipodi:namedview
     id="base"
     pagecolor="#ffffff"
     bordercolor="#666666"
     borderopacity="1.0"
     inkscape:pageopacity="0.0"
     inkscape:pageshadow="2"
     inkscape:zoom="15.839192"
     inkscape:cx="12.183967"
     inkscape:cy="21.909487"
     inkscape:document-units="px"
     inkscape:current-layer="layer1"
     showgrid="false"
     inkscape:showpageshadow="false"
     units="px"
     inkscape:window-width="1916"
     inkscape:window-height="1053"
     inkscape:window-x="1924"
     inkscape:window-y="0"
     inkscape:window-maximized="1" />
  <metadata
     id="metadata7">
    <rdf:RDF>
      <cc:Work
         rdf:about="">
        <dc:format>image/svg+xml</dc:format>
        <dc:type
           rdf:resource="http://purl.org/dc/dcmitype/StillImage" />
        <dc:title></dc:title>
      </cc:Work>
    </rdf:RDF>
  </metadata>
  <g
     inkscape:label="Capa 1"
     inkscape:groupmode="layer"
     id="layer1"
     transform="translate(0,-1026.3622)">
    <path
       style="opacity:1;fill:#1a1f24;fill-opacity:1;stroke:none;stroke-width:84.40000153;stroke-linejoin:miter;stroke-miterlimit:4;stroke-dasharray:none;stroke-opacity:1"
       d="M 13.115234 1.0039062 A 12 12 0 0 0 12.513672 1.0253906 A 12 12 0 0 0 11.875 1.0566406 A 12 12 0 0 0 11.345703 1.1289062 A 12 12 0 0 0 10.705078 1.2246094 A 12 12 0 0 0 10.037109 1.3867188 A 12 12 0 0 0 9.5566406 1.5078125 A 12 12 0 0 0 8.8984375 1.7382812 A 12 12 0 0 0 8.4160156 1.9140625 A 12 12 0 0 0 7.8222656 2.1894531 A 12 12 0 0 0 7.3320312 2.4277344 A 12 12 0 0 0 6.796875 2.7441406 A 12 12 0 0 0 6.296875 3.0507812 A 12 12 0 0 0 5.8066406 3.4140625 A 12 12 0 0 0 5.34375 3.765625 A 12 12 0 0 0 4.8496094 4.2128906 A 12 12 0 0 0 4.4550781 4.5800781 A 12 12 0 0 0 4.2636719 4.7851562 A 12 12 0 0 0 3.7734375 5.3417969 A 12 12 0 0 0 3.40625 5.8105469 A 12 12 0 0 0 3.0546875 6.3027344 A 12 12 0 0 0 2.7265625 6.8222656 A 12 12 0 0 0 2.4472656 7.3085938 A 12 12 0 0 0 2.1582031 7.8847656 A 12 12 0 0 0 1.9257812 8.4082031 A 12 12 0 0 0 1.7089844 8.9765625 A 12 12 0 0 0 1.5234375 9.5292969 A 12 12 0 0 0 1.359375 10.134766 A 12 12 0 0 0 1.234375 10.693359 A 12 12 0 0 0 1.1328125 11.300781 A 12 12 0 0 0 1.0625 11.882812 A 12 12 0 0 0 1.0117188 12.683594 A 12 12 0 0 0 1.0039062 12.884766 A 12 12 0 0 0 1.0253906 13.486328 A 12 12 0 0 0 1.0566406 14.125 A 12 12 0 0 0 1.1289062 14.654297 A 12 12 0 0 0 1.2246094 15.294922 A 12 12 0 0 0 1.3867188 15.962891 A 12 12 0 0 0 1.5078125 16.443359 A 12 12 0 0 0 1.7382812 17.101562 A 12 12 0 0 0 1.9140625 17.583984 A 12 12 0 0 0 2.1894531 18.177734 A 12 12 0 0 0 2.4277344 18.667969 A 12 12 0 0 0 2.7441406 19.203125 A 12 12 0 0 0 3.0507812 19.703125 A 12 12 0 0 0 3.4140625 20.193359 A 12 12 0 0 0 3.765625 20.65625 A 12 12 0 0 0 4.2128906 21.150391 A 12 12 0 0 0 4.5195312 21.480469 L 6.640625 19.359375 A 9 9 0 0 1 4 13 A 9 9 0 0 1 13 4 A 9 9 0 0 1 22 13 A 9 9 0 0 1 19.359375 19.359375 L 21.480469 21.480469 A 12 12 0 0 0 21.544922 21.419922 A 12 12 0 0 0 21.736328 21.214844 A 12 12 0 0 0 22.226562 20.658203 A 12 12 0 0 0 22.59375 20.189453 A 12 12 0 0 0 22.945312 19.697266 A 12 12 0 0 0 23.273438 19.177734 A 12 12 0 0 0 23.552734 18.691406 A 12 12 0 0 0 23.841797 18.115234 A 12 12 0 0 0 24.074219 17.591797 A 12 12 0 0 0 24.291016 17.023438 A 12 12 0 0 0 24.476562 16.470703 A 12 12 0 0 0 24.640625 15.865234 A 12 12 0 0 0 24.765625 15.306641 A 12 12 0 0 0 24.867188 14.699219 A 12 12 0 0 0 24.9375 14.117188 A 12 12 0 0 0 24.988281 13.316406 A 12 12 0 0 0 24.996094 13.115234 A 12 12 0 0 0 24.974609 12.513672 A 12 12 0 0 0 24.943359 11.875 A 12 12 0 0 0 24.871094 11.345703 A 12 12 0 0 0 24.775391 10.705078 A 12 12 0 0 0 24.613281 10.037109 A 12 12 0 0 0 24.492188 9.5566406 A 12 12 0 0 0 24.261719 8.8984375 A 12 12 0 0 0 24.085938 8.4160156 A 12 12 0 0 0 23.810547 7.8222656 A 12 12 0 0 0 23.572266 7.3320312 A 12 12 0 0 0 23.255859 6.796875 A 12 12 0 0 0 22.949219 6.296875 A 12 12 0 0 0 22.585938 5.8066406 A 12 12 0 0 0 22.234375 5.34375 A 12 12 0 0 0 21.787109 4.8496094 A 12 12 0 0 0 21.419922 4.4550781 A 12 12 0 0 0 21.214844 4.2636719 A 12 12 0 0 0 20.658203 3.7734375 A 12 12 0 0 0 20.189453 3.40625 A 12 12 0 0 0 19.697266 3.0546875 A 12 12 0 0 0 19.177734 2.7265625 A 12 12 0 0 0 18.691406 2.4472656 A 12 12 0 0 0 18.115234 2.1582031 A 12 12 0 0 0 17.591797 1.9257812 A 12 12 0 0 0 17.023438 1.7089844 A 12 12 0 0 0 16.470703 1.5234375 A 12 12 0 0 0 15.865234 1.359375 A 12 12 0 0 0 15.306641 1.234375 A 12 12 0 0 0 14.699219 1.1328125 A 12 12 0 0 0 14.117188 1.0625 A 12 12 0 0 0 13.316406 1.0117188 A 12 12 0 0 0 13.115234 1.0039062 z "
       transform="translate(0,1026.3622)"
       id="path4136" />
  </g>
</svg>
